<svg xmlns="http://www.w3.org/2000/svg" xmlns:xlink="http://www.w3.org/1999/xlink" aria-hidden="true" role="img" class="iconify iconify--logos" width="31.88" height="32" preserveAspectRatio="xMidYMid meet" viewBox="0 0 256 257"><defs><linearGradient id="IconifyId1813788fe1fbc4666664" x1="-.828%" x2="57.636%" y1="7.652%" y2="78.411%"><stop offset="0%" stop-color="#61DAFB"></stop><stop offset="100%" stop-color="#0096D6"></stop></linearGradient><linearGradient id="IconifyId1813788fe1fbc4666665" x1="43.376%" x2="50.316%" y1="2.242%" y2="89.03%"><stop offset="0%" stop-color="#61DAFB"></stop><stop offset="100%" stop-color="#0096D6"></stop></linearGradient></defs><path fill="url(#IconifyId1813788fe1fbc4666664)" d="M210.483 73.824a11.653 11.653 0 0 0-8.704-4.289c-5.93 0-9.846 3.231-12.437 6.364c-2.674-3.132-6.445-6.364-12.188-6.364c-5.57 0-9.578 3.11-12.264 6.149l-2.853-5.792c3.53-3.745 8.524-7.565 16.148-7.565c7.408 0 12.54 3.686 15.682 7.565l2.692 5.486Zm-10.16 23.655c-2.628-3.08-6.422-6.067-12.033-6.067c-5.612 0-9.492 3.098-12.247 6.067l-2.852-5.793c3.53-3.745 8.523-7.565 16.154-7.565c7.41 0 12.54 3.686 15.681 7.565l-2.736 5.793ZM186.227 128c0-5.612-3.88-10.621-9.322-12.658v-27.88l-3.128 6.375c-2.692-3.218-6.608-6.375-12.29-6.375c-5.786 0-9.72 3.157-12.317 6.375l-3.128-6.375v27.88c-5.443 2.037-9.322 7.046-9.322 12.658c0 5.812 3.88 10.82 9.322 12.858v28.11l3.128-6.492c2.692 3.185 6.608 6.492 12.317 6.492c5.681 0 9.597-3.306 12.29-6.492l3.128 6.492v-28.11c5.442-2.038 9.322-7.046 9.322-12.858Zm-43.49-14.88v-25.455l-3.128 6.491c-2.692-3.185-6.608-6.491-12.317-6.491c-5.682 0-9.598 3.306-12.29 6.491l-3.128-6.491v25.455c-5.443 2.176-9.322 7.464-9.322 13.194c0 5.73 3.88 11.018 9.322 13.194v26.786l3.128-6.375c2.692 3.218 6.608 6.375 12.317 6.375c5.785 0 9.719-3.157 12.316-6.375l3.129 6.375v-26.786c5.442-2.176 9.322-7.464 9.322-13.194c0-5.73-3.88-11.018-9.322-13.194Zm-66.94-23.824c-2.674-3.133-6.445-6.364-12.188-6.364c-5.57 0-9.578 3.11-12.264 6.149l-2.853-5.792c3.53-3.745 8.524-7.565 16.148-7.565c7.408 0 12.54 3.686 15.682 7.565l2.692 5.486a11.69 11.69 0 0 0-8.704 4.289ZM63.35 97.479c-2.628-3.08-6.422-6.067-12.033-6.067c-5.612 0-9.492 3.098-12.247 6.067l-2.852-5.793c3.53-3.745 8.523-7.565 16.154-7.565c7.41 0 12.54 3.686 15.681 7.565l-2.736 5.793Z"></path><path fill="url(#IconifyId1813788fe1fbc4666665)" d="M128 0C57.308 0 0 57.308 0 128s57.308 128 128 128s128-57.308 128-128S198.692 0 128 0Zm0 243.077c-63.53 0-115.077-51.546-115.077-115.077S64.47 12.923 128 12.923S243.077 64.47 243.077 128S191.53 243.077 128 243.077Z"></path></svg>